<svg id="Layer_1" data-name="Layer 1" xmlns="http://www.w3.org/2000/svg" width="1.5in" height="1.5in" viewBox="0 0 108 108"><defs><style>.cls-1{fill:#22314e;}</style></defs><title>Icon</title><g id="g39878"><path id="path39880" class="cls-1" d="M26.814,15.6633A11.1077,11.1077,0,0,1,15.8931,26.9484a11.1076,11.1076,0,0,1-10.92-11.2851,11.1082,11.1082,0,0,1,10.92-11.2852A11.1084,11.1084,0,0,1,26.814,15.6633Z"/><path id="path39882" class="cls-1" d="M26.814,54.1213A11.1077,11.1077,0,0,1,15.8931,65.4064a11.2913,11.2913,0,0,1,0-22.57A11.1077,11.1077,0,0,1,26.814,54.1213Z"/><path id="path39884" class="cls-1" d="M26.814,92.5793a11.1083,11.1083,0,0,1-10.9209,11.2851,11.2913,11.2913,0,0,1,0-22.57A11.1084,11.1084,0,0,1,26.814,92.5793Z"/><path id="path39886" class="cls-1" d="M64.9205,54.1213A10.9263,10.9263,0,1,1,54,42.8361,11.1078,11.1078,0,0,1,64.9205,54.1213Z"/><path id="path39888" class="cls-1" d="M64.9205,15.6633a10.9263,10.9263,0,1,1-21.8408,0,10.9263,10.9263,0,1,1,21.8408,0Z"/><path id="path39890" class="cls-1" d="M103.0268,54.1213A10.9262,10.9262,0,1,1,92.1059,42.8361,11.1077,11.1077,0,0,1,103.0268,54.1213Z"/><path id="path39892" class="cls-1" d="M103.0268,15.6633a10.9262,10.9262,0,1,1-21.8407,0,10.9262,10.9262,0,1,1,21.8407,0Z"/><path id="path39894" class="cls-1" d="M103.0268,92.5793A10.9262,10.9262,0,1,1,92.1059,81.2941,11.1083,11.1083,0,0,1,103.0268,92.5793Z"/><path id="path39896" class="cls-1" d="M64.9205,92.5793A10.9263,10.9263,0,1,1,54,81.2941,11.1084,11.1084,0,0,1,64.9205,92.5793Z"/></g></svg>