<svg id="Layer_1" data-name="Layer 1" xmlns="http://www.w3.org/2000/svg" width="10.6833in" height="2.011in" viewBox="0 0 769.2 144.7911"><defs><style>.cls-1{fill:#22314e;}</style></defs><title>ROSphinx</title><g id="g39878"><path id="path39880" class="cls-1" d="M29.2988,21.502A11.1077,11.1077,0,0,1,18.3779,32.7871,11.1076,11.1076,0,0,1,7.458,21.502a11.1082,11.1082,0,0,1,10.92-11.2852A11.1084,11.1084,0,0,1,29.2988,21.502Z"/><path id="path39882" class="cls-1" d="M29.2988,59.96A11.1077,11.1077,0,0,1,18.3779,71.2451a11.2913,11.2913,0,0,1,0-22.57A11.1077,11.1077,0,0,1,29.2988,59.96Z"/><path id="path39884" class="cls-1" d="M29.2988,98.418a11.1083,11.1083,0,0,1-10.9209,11.2851,11.2913,11.2913,0,0,1,0-22.57A11.1084,11.1084,0,0,1,29.2988,98.418Z"/><path id="path39886" class="cls-1" d="M67.4053,59.96A10.9263,10.9263,0,1,1,56.4844,48.6748,11.1078,11.1078,0,0,1,67.4053,59.96Z"/><path id="path39888" class="cls-1" d="M67.4053,21.502a10.9263,10.9263,0,1,1-21.8408,0,10.9263,10.9263,0,1,1,21.8408,0Z"/><path id="path39890" class="cls-1" d="M105.5117,59.96A10.9263,10.9263,0,1,1,94.5908,48.6748,11.1077,11.1077,0,0,1,105.5117,59.96Z"/><path id="path39892" class="cls-1" d="M105.5117,21.502a10.9263,10.9263,0,1,1-21.8408,0,10.9263,10.9263,0,1,1,21.8408,0Z"/><path id="path39894" class="cls-1" d="M105.5117,98.418A10.9263,10.9263,0,1,1,94.5908,87.1328,11.1083,11.1083,0,0,1,105.5117,98.418Z"/><path id="path39896" class="cls-1" d="M67.4053,98.418A10.9263,10.9263,0,1,1,56.4844,87.1328,11.1084,11.1084,0,0,1,67.4053,98.418Z"/></g><path class="cls-1" d="M209.8877,40.0313c0,15.8374-8.0952,25.5947-21.13,28.9882l19.62,40.4414H191.7764L172.7046,70.292H151.0259v39.1689H136.8936V10.478h42.1225C195.7554,10.478,209.8877,19.6694,209.8877,40.0313Zm-14.5439.4243c0-10.3223-6.586-15.9785-16.3277-15.9785h-27.99V56.293h27.99C188.6206,56.293,195.3438,51.2021,195.3438,40.4556Z"/><path class="cls-1" d="M309.082,59.8281c0,30.8262-16.7392,51.1885-41.1621,51.1885-24.2861,0-40.751-20.08-40.751-50.9058s16.74-51.1879,41.0254-51.1879C292.6172,8.9229,309.082,29.002,309.082,59.8281Zm-14.6806.2827c0-22.4834-11.252-36.4819-26.6192-36.4819-15.23,0-25.9316,13.7158-25.9316,36.1992s11.1133,36.4824,26.4805,36.4824C283.5615,96.3105,294.4014,82.5938,294.4014,60.1108Z"/><path class="cls-1" d="M393.7334,81.0391c0,17.8164-10.9766,29.9775-35.5371,29.9775a43.93,43.93,0,0,1-34.1641-15.98l10.291-10.3223c6.4483,7.212,15.9161,11.7364,24.9707,11.7364,13.4473,0,19.8956-4.8076,19.8956-14.4229,0-7.6357-5.626-11.4531-21.6788-16.4023-20.3066-6.2222-30.0488-11.4541-30.0488-29.1294,0-17.11,13.9961-27.5737,31.6953-27.5737,13.0352,0,22.9141,4.9492,31.42,13.4331L380.4248,32.9614c-6.0371-6.3633-12.8984-9.4741-22.3652-9.4741-11.251,0-16.0528,5.6563-16.0528,12.3023,0,6.9287,4.3907,10.3222,20.9922,15.4125C381.9336,57.1411,393.7334,63.3628,393.7334,81.0391Z"/><path class="cls-1" d="M475.7783,73.5439c0,25.4532-13.4472,37.4727-28.4023,37.4727-7.2715,0-14.1328-3.96-18.1114-8.4844v26.7256L415.27,136.752V35.2236h13.9951v7.07c5.2139-4.9492,11.251-8.6254,18.7969-8.6254C463.5664,33.6685,475.7783,45.2632,475.7783,73.5439Zm-14.1328.4249c0-18.6656-5.7627-26.8672-16.19-26.8672-6.7237,0-12.6231,4.6665-16.3272,9.4741V87.8262c3.1553,4.3838,9.7412,9.7568,16.876,9.7568C456.1572,97.583,461.6455,89.6641,461.6455,73.9688Z"/><path class="cls-1" d="M553.4316,109.4609H539.3V67.4639c0-14.9888-5.4883-20.3623-14.8184-20.3623-9.4677,0-14.8183,6.9287-14.8183,18.9482v43.4111H495.53V14.0132l14.1328-7.6358V42.2939c3.5664-5.3735,10.7012-8.6254,18.1113-8.6254,16.7383,0,25.6572,11.312,25.6572,33.23Z"/><path class="cls-1" d="M592.667,16.2759a9.1264,9.1264,0,1,1-18.2481,0,9.1305,9.1305,0,1,1,18.2481,0Zm-2.0576,93.185H576.4775V35.2236h14.1319Z"/><path class="cls-1" d="M672.1084,109.4609H657.9756V67.4639c0-14.9888-5.4883-20.3623-14.8184-20.3623-9.4668,0-14.8183,6.9287-14.8183,18.9482v43.4111H614.207V35.2236h14.1319v7.07c3.5683-5.3735,10.7031-8.6254,18.1113-8.6254,16.74,0,25.6582,11.312,25.6582,33.23Z"/><path class="cls-1" d="M751.4092,109.4609h-16.74L727.81,96.5928c-2.8819-5.3731-6.1748-12.16-7.5469-14.9883-1.2344,2.8281-5.0762,10.0391-7.82,15.13l-6.9981,12.7265h-15.916L712.167,70.999,691.0381,35.2236h16.3271l5.626,10.4639c2.8809,5.3735,6.3106,12.02,7.5459,14.8477,1.5088-2.8282,4.9395-9.8985,7.6836-15.13l5.4883-10.1812h16.19L728.6318,70.999Z"/></svg>